<svg xmlns="http://www.w3.org/2000/svg" xmlns:xlink="http://www.w3.org/1999/xlink"  version="1.1" x="0px" y="0px" viewBox="0 0 100 125" stroke='currentColor' color='linear-gradient(red,blue)' style="color: #AC3CB7;" xml:space="preserve"><path d="M62.6,56.9c0,0.5,1.5,1.7,3.3,2.8l23.3,13.1c1.8,1,3.3,0.2,3.3-1.9V56V44V29.1c0-2.1-1.5-3-3.3-1.9L65.9,40.3  c-1.8,1-3.3,2.3-3.3,2.8V44v12C62.6,56,62.6,56.4,62.6,56.9z"/><path d="M62.1,21.6H14.6c-3.9,0-7,3.1-7,7v42.8c0,3.9,3.1,7,7,7h47.5c3.9,0,7-3.1,7-7V28.6C69.1,24.7,65.9,21.6,62.1,21.6z   M57.6,55.7H44v13.6H32.6V55.7H19V44.3h13.6V30.7H44v13.6h13.6V55.7z"/></svg>